<svg xmlns="http://www.w3.org/2000/svg" xmlns:xlink="http://www.w3.org/1999/xlink" width="300" zoomAndPan="magnify" viewBox="0 0 224.87999 112.499997" height="150" preserveAspectRatio="xMidYMid meet" version="1.0"><defs><g/></defs><path fill="#f18f14" d="M 48.667969 41.15625 L 46.074219 41.15625 C 46.074219 40.8125 46.011719 40.480469 45.878906 40.164062 C 45.746094 39.84375 45.558594 39.566406 45.316406 39.320312 C 45.074219 39.078125 44.792969 38.890625 44.476562 38.757812 C 44.15625 38.628906 43.828125 38.5625 43.484375 38.5625 C 43.140625 38.5625 42.808594 38.628906 42.492188 38.757812 C 42.171875 38.890625 41.890625 39.078125 41.648438 39.320312 C 41.40625 39.566406 41.21875 39.84375 41.085938 40.164062 C 40.957031 40.480469 40.890625 40.8125 40.890625 41.15625 L 33.109375 41.15625 C 32.765625 41.15625 32.4375 41.222656 32.117188 41.351562 C 31.800781 41.484375 31.519531 41.671875 31.277344 41.914062 C 31.035156 42.15625 30.847656 42.4375 30.714844 42.753906 C 30.582031 43.074219 30.515625 43.402344 30.515625 43.75 C 30.515625 44.09375 30.582031 44.421875 30.714844 44.742188 C 30.847656 45.058594 31.035156 45.339844 31.277344 45.582031 C 31.519531 45.824219 31.800781 46.011719 32.117188 46.144531 C 32.4375 46.273438 32.765625 46.339844 33.109375 46.339844 L 35.703125 46.339844 L 35.703125 51.527344 L 33.109375 51.527344 C 32.765625 51.527344 32.4375 51.59375 32.117188 51.726562 C 31.800781 51.855469 31.519531 52.042969 31.277344 52.285156 C 31.035156 52.53125 30.847656 52.808594 30.714844 53.128906 C 30.582031 53.445312 30.515625 53.777344 30.515625 54.121094 C 30.515625 54.464844 30.582031 54.796875 30.714844 55.113281 C 30.847656 55.429688 31.035156 55.710938 31.277344 55.953125 C 31.519531 56.195312 31.800781 56.382812 32.117188 56.515625 C 32.4375 56.648438 32.765625 56.714844 33.109375 56.714844 L 35.703125 56.714844 L 35.703125 61.898438 L 33.109375 61.898438 C 32.765625 61.898438 32.4375 61.964844 32.117188 62.097656 C 31.800781 62.230469 31.519531 62.414062 31.277344 62.660156 C 31.035156 62.902344 30.847656 63.183594 30.714844 63.5 C 30.582031 63.816406 30.515625 64.148438 30.515625 64.492188 C 30.515625 64.835938 30.582031 65.167969 30.714844 65.484375 C 30.847656 65.800781 31.035156 66.082031 31.277344 66.328125 C 31.519531 66.570312 31.800781 66.757812 32.117188 66.886719 C 32.4375 67.019531 32.765625 67.085938 33.109375 67.085938 L 40.890625 67.085938 C 40.890625 67.429688 40.957031 67.761719 41.085938 68.078125 C 41.21875 68.394531 41.40625 68.675781 41.648438 68.917969 C 41.890625 69.164062 42.171875 69.351562 42.492188 69.480469 C 42.808594 69.613281 43.140625 69.679688 43.484375 69.679688 C 43.828125 69.679688 44.15625 69.613281 44.476562 69.480469 C 44.792969 69.351562 45.074219 69.164062 45.316406 68.917969 C 45.558594 68.675781 45.746094 68.394531 45.878906 68.078125 C 46.011719 67.761719 46.074219 67.429688 46.074219 67.085938 L 48.667969 67.085938 C 49.417969 67.085938 50.152344 66.976562 50.871094 66.761719 C 51.589844 66.546875 52.265625 66.238281 52.894531 65.828125 C 53.523438 65.417969 54.082031 64.929688 54.570312 64.359375 C 55.054688 63.789062 55.453125 63.160156 55.757812 62.476562 C 56.0625 61.789062 56.265625 61.074219 56.363281 60.332031 C 56.464844 59.589844 56.453125 58.847656 56.339844 58.105469 C 56.222656 57.363281 56.003906 56.652344 55.683594 55.976562 C 55.363281 55.296875 54.953125 54.679688 54.453125 54.121094 C 54.953125 53.5625 55.363281 52.941406 55.683594 52.265625 C 56.003906 51.585938 56.222656 50.878906 56.339844 50.136719 C 56.453125 49.394531 56.464844 48.652344 56.363281 47.910156 C 56.265625 47.164062 56.0625 46.449219 55.757812 45.765625 C 55.453125 45.082031 55.054688 44.453125 54.570312 43.882812 C 54.082031 43.3125 53.523438 42.820312 52.894531 42.414062 C 52.265625 42.003906 51.589844 41.691406 50.871094 41.476562 C 50.152344 41.265625 49.417969 41.15625 48.667969 41.15625 Z M 48.667969 46.339844 C 49.011719 46.339844 49.34375 46.40625 49.660156 46.539062 C 49.980469 46.671875 50.257812 46.859375 50.503906 47.101562 C 50.746094 47.34375 50.933594 47.625 51.066406 47.941406 C 51.195312 48.257812 51.261719 48.589844 51.261719 48.933594 C 51.261719 49.277344 51.195312 49.609375 51.066406 49.925781 C 50.933594 50.246094 50.746094 50.523438 50.503906 50.769531 C 50.257812 51.011719 49.980469 51.199219 49.660156 51.328125 C 49.34375 51.460938 49.011719 51.527344 48.667969 51.527344 L 40.890625 51.527344 L 40.890625 46.339844 Z M 48.667969 61.898438 L 40.890625 61.898438 L 40.890625 56.714844 L 48.667969 56.714844 C 49.011719 56.714844 49.34375 56.777344 49.660156 56.910156 C 49.980469 57.042969 50.257812 57.230469 50.503906 57.472656 C 50.746094 57.714844 50.933594 57.996094 51.066406 58.3125 C 51.195312 58.632812 51.261719 58.960938 51.261719 59.304688 C 51.261719 59.648438 51.195312 59.980469 51.066406 60.296875 C 50.933594 60.617188 50.746094 60.898438 50.503906 61.140625 C 50.257812 61.382812 49.980469 61.570312 49.660156 61.703125 C 49.34375 61.832031 49.011719 61.898438 48.667969 61.898438 Z M 48.667969 61.898438 " fill-opacity="1" fill-rule="nonzero"/><path fill="#f18f14" d="M 13.832031 28.953125 C 13.035156 29.890625 12.285156 30.863281 11.582031 31.875 C 10.878906 32.882812 10.222656 33.921875 9.617188 34.992188 C 9.015625 36.0625 8.460938 37.160156 7.960938 38.285156 C 7.460938 39.40625 7.011719 40.550781 6.621094 41.714844 C 6.226562 42.882812 5.890625 44.0625 5.609375 45.261719 C 5.332031 46.457031 5.109375 47.664062 4.941406 48.882812 C 4.777344 50.101562 4.667969 51.328125 4.617188 52.554688 C 4.570312 53.785156 4.578125 55.011719 4.644531 56.238281 C 4.710938 57.46875 4.835938 58.691406 5.019531 59.90625 C 5.199219 61.121094 5.441406 62.328125 5.738281 63.519531 C 6.035156 64.714844 6.386719 65.890625 6.796875 67.050781 C 7.203125 68.210938 7.667969 69.347656 8.183594 70.464844 C 8.699219 71.582031 9.269531 72.667969 9.886719 73.730469 C 10.507812 74.792969 11.175781 75.824219 11.894531 76.824219 C 12.613281 77.820312 13.375 78.785156 14.183594 79.710938 C 14.992188 80.636719 15.84375 81.523438 16.738281 82.367188 C 17.628906 83.214844 18.558594 84.015625 19.527344 84.773438 C 20.496094 85.53125 21.5 86.238281 22.535156 86.902344 C 23.574219 87.5625 24.636719 88.175781 25.734375 88.738281 C 26.828125 89.296875 27.945312 89.804688 29.085938 90.261719 C 30.230469 90.71875 31.390625 91.117188 32.570312 91.460938 C 33.753906 91.808594 34.945312 92.09375 36.152344 92.328125 C 37.363281 92.558594 38.578125 92.734375 39.800781 92.847656 C 41.027344 92.964844 42.253906 93.023438 43.484375 93.023438 C 44.710938 93.023438 45.941406 92.964844 47.164062 92.847656 C 48.386719 92.734375 49.605469 92.558594 50.8125 92.328125 C 52.019531 92.09375 53.214844 91.808594 54.394531 91.460938 C 55.574219 91.117188 56.734375 90.71875 57.878906 90.261719 C 59.019531 89.804688 60.140625 89.296875 61.234375 88.738281 C 62.328125 88.175781 63.394531 87.5625 64.429688 86.902344 C 65.464844 86.238281 66.46875 85.53125 67.4375 84.773438 C 68.40625 84.015625 69.335938 83.214844 70.230469 82.367188 C 71.121094 81.523438 71.972656 80.636719 72.78125 79.710938 C 73.589844 78.785156 74.355469 77.820312 75.070312 76.824219 C 75.789062 75.824219 76.457031 74.792969 77.078125 73.730469 C 77.695312 72.667969 78.265625 71.582031 78.78125 70.464844 C 79.296875 69.347656 79.761719 68.210938 80.167969 67.050781 C 80.578125 65.890625 80.929688 64.714844 81.226562 63.519531 C 81.523438 62.328125 81.765625 61.121094 81.945312 59.90625 C 82.128906 58.691406 82.253906 57.46875 82.320312 56.238281 C 82.386719 55.011719 82.398438 53.785156 82.347656 52.554688 C 82.296875 51.328125 82.191406 50.101562 82.023438 48.882812 C 81.859375 47.664062 81.636719 46.457031 81.355469 45.261719 C 81.074219 44.0625 80.738281 42.882812 80.34375 41.714844 C 79.953125 40.550781 79.507812 39.40625 79.003906 38.285156 C 78.503906 37.160156 77.953125 36.0625 77.347656 34.992188 C 76.742188 33.921875 76.085938 32.882812 75.382812 31.875 C 74.679688 30.863281 73.929688 29.890625 73.132812 28.953125 C 72.222656 27.886719 71.253906 26.871094 70.230469 25.910156 C 69.207031 24.945312 68.136719 24.042969 67.015625 23.195312 C 65.894531 22.347656 64.730469 21.5625 63.527344 20.84375 C 62.320312 20.121094 61.082031 19.464844 59.804688 18.878906 C 58.527344 18.292969 57.226562 17.773438 55.894531 17.328125 C 54.5625 16.882812 53.210938 16.507812 51.835938 16.207031 C 50.464844 15.90625 49.082031 15.679688 47.683594 15.527344 C 46.289062 15.378906 44.886719 15.300781 43.484375 15.300781 C 42.078125 15.300781 40.675781 15.378906 39.28125 15.527344 C 37.882812 15.679688 36.5 15.90625 35.128906 16.207031 C 33.757812 16.507812 32.402344 16.882812 31.074219 17.328125 C 29.742188 17.773438 28.4375 18.292969 27.160156 18.878906 C 25.886719 19.464844 24.644531 20.121094 23.4375 20.84375 C 22.234375 21.5625 21.070312 22.347656 19.949219 23.195312 C 18.828125 24.042969 17.757812 24.945312 16.734375 25.910156 C 15.710938 26.871094 14.746094 27.886719 13.832031 28.953125 Z M 63.65625 74.332031 C 63.035156 74.957031 62.386719 75.546875 61.707031 76.109375 C 61.03125 76.671875 60.328125 77.203125 59.601562 77.699219 C 58.875 78.199219 58.128906 78.660156 57.359375 79.089844 C 56.589844 79.515625 55.804688 79.910156 55 80.265625 C 54.195312 80.621094 53.375 80.9375 52.539062 81.214844 C 51.703125 81.496094 50.859375 81.734375 50 81.9375 C 49.144531 82.136719 48.28125 82.300781 47.410156 82.421875 C 46.535156 82.542969 45.660156 82.621094 44.78125 82.660156 C 43.902344 82.703125 43.023438 82.703125 42.144531 82.660156 C 41.265625 82.617188 40.390625 82.535156 39.519531 82.414062 C 38.644531 82.292969 37.78125 82.128906 36.925781 81.925781 C 36.070312 81.726562 35.222656 81.484375 34.390625 81.203125 C 33.554688 80.921875 32.734375 80.601562 31.929688 80.246094 C 31.125 79.890625 30.339844 79.496094 29.570312 79.066406 C 28.800781 78.640625 28.054688 78.175781 27.332031 77.675781 C 26.605469 77.179688 25.902344 76.648438 25.226562 76.082031 C 24.964844 75.851562 24.667969 75.675781 24.339844 75.554688 C 24.011719 75.433594 23.671875 75.378906 23.320312 75.386719 C 22.96875 75.394531 22.632812 75.464844 22.308594 75.597656 C 21.984375 75.730469 21.695312 75.917969 21.441406 76.160156 C 21.203125 76.402344 20.929688 76.582031 20.617188 76.707031 C 20.300781 76.832031 19.976562 76.890625 19.640625 76.878906 C 19.304688 76.867188 18.980469 76.789062 18.675781 76.644531 C 18.375 76.5 18.109375 76.300781 17.890625 76.042969 C 17.207031 75.246094 16.5625 74.414062 15.957031 73.554688 C 15.351562 72.691406 14.785156 71.804688 14.261719 70.890625 C 13.742188 69.980469 13.261719 69.042969 12.828125 68.085938 C 12.390625 67.125 12.003906 66.148438 11.660156 65.15625 C 11.316406 64.160156 11.019531 63.152344 10.769531 62.128906 C 10.523438 61.105469 10.320312 60.074219 10.167969 59.035156 C 10.015625 57.992188 9.914062 56.945312 9.859375 55.894531 C 9.804688 54.84375 9.800781 53.792969 9.84375 52.742188 C 9.886719 51.691406 9.980469 50.644531 10.121094 49.601562 C 10.265625 48.558594 10.457031 47.523438 10.695312 46.5 C 10.933594 45.472656 11.21875 44.460938 11.554688 43.464844 C 11.886719 42.464844 12.265625 41.488281 12.691406 40.523438 C 13.117188 39.5625 13.585938 38.621094 14.101562 37.703125 C 14.613281 36.785156 15.167969 35.890625 15.765625 35.023438 C 16.363281 34.160156 17 33.320312 17.675781 32.515625 C 18.351562 31.707031 19.0625 30.933594 19.8125 30.195312 C 20.558594 29.453125 21.339844 28.75 22.152344 28.082031 C 22.96875 27.414062 23.8125 26.789062 24.683594 26.199219 C 25.554688 25.613281 26.453125 25.066406 27.378906 24.5625 C 28.300781 24.058594 29.246094 23.597656 30.214844 23.183594 C 31.179688 22.765625 32.164062 22.398438 33.167969 22.074219 C 34.167969 21.75 35.183594 21.476562 36.210938 21.246094 C 37.238281 21.019531 38.273438 20.839844 39.316406 20.707031 C 40.359375 20.574219 41.410156 20.492188 42.460938 20.460938 C 43.511719 20.425781 44.5625 20.441406 45.613281 20.507812 C 46.664062 20.574219 47.710938 20.6875 48.75 20.851562 C 49.789062 21.015625 50.820312 21.226562 51.839844 21.484375 C 52.859375 21.746094 53.863281 22.050781 54.855469 22.40625 C 55.847656 22.757812 56.820312 23.15625 57.773438 23.601562 C 58.726562 24.046875 59.65625 24.535156 60.566406 25.066406 C 61.472656 25.601562 62.355469 26.171875 63.207031 26.789062 C 64.0625 27.402344 64.886719 28.054688 65.679688 28.746094 C 65.898438 28.9375 66.074219 29.160156 66.199219 29.421875 C 66.324219 29.683594 66.394531 29.960938 66.40625 30.25 C 66.417969 30.542969 66.371094 30.824219 66.261719 31.09375 C 66.15625 31.363281 66 31.601562 65.796875 31.808594 L 65.523438 32.078125 C 65.28125 32.328125 65.089844 32.609375 64.953125 32.929688 C 64.816406 33.246094 64.742188 33.582031 64.730469 33.925781 C 64.71875 34.273438 64.769531 34.613281 64.882812 34.9375 C 65 35.265625 65.167969 35.5625 65.394531 35.828125 C 65.960938 36.503906 66.492188 37.203125 66.992188 37.929688 C 67.492188 38.65625 67.957031 39.402344 68.386719 40.171875 C 68.816406 40.941406 69.210938 41.726562 69.570312 42.53125 C 69.929688 43.339844 70.246094 44.160156 70.527344 44.992188 C 70.8125 45.828125 71.054688 46.675781 71.257812 47.53125 C 71.460938 48.390625 71.621094 49.253906 71.746094 50.128906 C 71.871094 51 71.953125 51.875 71.992188 52.757812 C 72.035156 53.636719 72.035156 54.515625 71.996094 55.398438 C 71.957031 56.277344 71.875 57.15625 71.753906 58.027344 C 71.632812 58.902344 71.472656 59.765625 71.273438 60.625 C 71.070312 61.480469 70.832031 62.328125 70.550781 63.164062 C 70.269531 64 69.953125 64.820312 69.597656 65.628906 C 69.242188 66.433594 68.847656 67.222656 68.421875 67.992188 C 67.992188 68.761719 67.527344 69.511719 67.03125 70.238281 C 66.53125 70.964844 66 71.667969 65.4375 72.34375 C 64.875 73.023438 64.28125 73.671875 63.65625 74.292969 Z M 63.65625 74.332031 " fill-opacity="1" fill-rule="nonzero"/><g fill="#ffffff" fill-opacity="1"><g transform="translate(90.067325, 55.610694)"><g><path d="M 5.59375 -23.09375 C 2.921875 -23.09375 1.4375 -21.640625 1.4375 -18.9375 L 1.4375 -12.125 C 1.4375 -11.578125 1.703125 -11.21875 2.21875 -11.046875 L 9.0625 -8.796875 L 9.0625 -4.96875 C 9.0625 -4.1875 8.65625 -3.8125 7.90625 -3.8125 L 6.515625 -3.8125 C 5.796875 -3.8125 5.375 -4.1875 5.375 -4.96875 L 5.375 -7.1875 C 5.375 -7.5 5.21875 -7.640625 4.90625 -7.640625 L 1.90625 -7.640625 C 1.609375 -7.640625 1.4375 -7.5 1.4375 -7.1875 L 1.4375 -4.15625 C 1.4375 -1.4375 2.921875 0 5.59375 0 L 8.828125 0 C 11.546875 0 12.984375 -1.4375 12.984375 -4.15625 L 12.984375 -10.828125 C 12.984375 -11.375 12.734375 -11.6875 12.234375 -11.890625 L 5.375 -14.140625 L 5.375 -18.125 C 5.375 -18.875 5.796875 -19.28125 6.515625 -19.28125 L 7.90625 -19.28125 C 8.6875 -19.28125 9.0625 -18.875 9.0625 -18.125 L 9.0625 -15.875 C 9.0625 -15.578125 9.234375 -15.40625 9.53125 -15.40625 L 12.53125 -15.40625 C 12.84375 -15.40625 12.984375 -15.578125 12.984375 -15.875 L 12.984375 -18.9375 C 12.984375 -21.640625 11.546875 -23.09375 8.828125 -23.09375 Z M 5.59375 -23.09375 "/></g></g></g><g fill="#ffffff" fill-opacity="1"><g transform="translate(110.9654, 55.610694)"><g><path d="M 1.90625 -23.09375 C 1.59375 -23.09375 1.4375 -22.921875 1.4375 -22.625 L 1.4375 -0.46875 C 1.4375 -0.171875 1.59375 0 1.90625 0 L 4.90625 0 C 5.1875 0 5.375 -0.171875 5.375 -0.46875 L 5.375 -22.625 C 5.375 -22.921875 5.1875 -23.09375 4.90625 -23.09375 Z M 1.90625 -23.09375 "/></g></g></g><g fill="#ffffff" fill-opacity="1"><g transform="translate(124.243814, 55.610694)"><g><path d="M 13.5 -23.09375 C 13.15625 -23.09375 12.953125 -22.921875 12.875 -22.5625 L 9.671875 -8.203125 L 6.46875 -22.5625 C 6.375 -22.921875 6.171875 -23.09375 5.828125 -23.09375 L 2.015625 -23.09375 C 1.640625 -23.09375 1.4375 -22.890625 1.4375 -22.515625 L 1.4375 -0.578125 C 1.4375 -0.203125 1.640625 0 2.015625 0 L 4.671875 0 C 5.046875 0 5.25 -0.203125 5.25 -0.578125 L 5.25 -13.5625 L 5.453125 -13.5625 L 8.3125 -0.515625 C 8.390625 -0.171875 8.59375 0 8.953125 0 L 10.359375 0 C 10.703125 0 10.90625 -0.171875 11 -0.515625 L 13.859375 -13.5625 L 14.046875 -13.5625 L 14.046875 -0.578125 C 14.046875 -0.203125 14.25 0 14.625 0 L 17.3125 0 C 17.6875 0 17.890625 -0.203125 17.890625 -0.578125 L 17.890625 -22.515625 C 17.890625 -22.890625 17.6875 -23.09375 17.3125 -23.09375 Z M 13.5 -23.09375 "/></g></g></g><g fill="#ffffff" fill-opacity="1"><g transform="translate(150.048486, 55.610694)"><g><path d="M 1.4375 -0.46875 C 1.4375 -0.171875 1.609375 0 1.90625 0 L 4.90625 0 C 5.21875 0 5.375 -0.171875 5.375 -0.46875 L 5.375 -7.734375 L 8.828125 -7.734375 C 11.546875 -7.734375 12.984375 -9.203125 12.984375 -11.890625 L 12.984375 -18.9375 C 12.984375 -21.640625 11.546875 -23.09375 8.828125 -23.09375 L 1.90625 -23.09375 C 1.609375 -23.09375 1.4375 -22.921875 1.4375 -22.625 Z M 5.375 -11.546875 L 5.375 -19.28125 L 7.90625 -19.28125 C 8.6875 -19.28125 9.0625 -18.875 9.0625 -18.125 L 9.0625 -12.703125 C 9.0625 -11.984375 8.6875 -11.546875 7.90625 -11.546875 Z M 5.375 -11.546875 "/></g></g></g><g fill="#ffffff" fill-opacity="1"><g transform="translate(170.946558, 55.610694)"><g><path d="M 5.375 -3.8125 L 12.234375 -3.8125 C 12.546875 -3.8125 12.703125 -3.640625 12.703125 -3.34375 L 12.703125 -0.46875 C 12.703125 -0.140625 12.546875 0 12.234375 0 L 1.90625 0 C 1.609375 0 1.4375 -0.140625 1.4375 -0.46875 L 1.4375 -22.625 C 1.4375 -22.921875 1.609375 -23.09375 1.90625 -23.09375 L 4.90625 -23.09375 C 5.21875 -23.09375 5.375 -22.921875 5.375 -22.625 Z M 5.375 -3.8125 "/></g></g></g><g fill="#ffffff" fill-opacity="1"><g transform="translate(191.556016, 55.610694)"><g><path d="M 12.953125 -22.625 C 12.953125 -22.921875 12.84375 -23.09375 12.5 -23.09375 L 1.875 -23.09375 C 1.609375 -23.09375 1.4375 -22.921875 1.4375 -22.625 L 1.4375 -0.46875 C 1.4375 -0.171875 1.609375 0 1.875 0 L 12.5 0 C 12.84375 0 12.953125 -0.171875 12.953125 -0.46875 L 12.953125 -3.34375 C 12.953125 -3.671875 12.84375 -3.8125 12.5 -3.8125 L 5.28125 -3.8125 L 5.28125 -9.640625 L 10.796875 -9.640625 C 11.078125 -9.640625 11.25 -9.8125 11.25 -10.125 L 11.25 -12.984375 C 11.25 -13.296875 11.078125 -13.484375 10.796875 -13.484375 L 5.28125 -13.484375 L 5.28125 -19.25 L 12.5 -19.25 C 12.84375 -19.25 12.953125 -19.453125 12.953125 -19.734375 Z M 12.953125 -22.625 "/></g></g></g><g fill="#ffffff" fill-opacity="1"><g transform="translate(110.88578, 77.237638)"><g><path d="M 5.5625 -9.71875 C 5.5625 -9.84375 5.515625 -9.90625 5.359375 -9.90625 L 0.8125 -9.90625 C 0.6875 -9.90625 0.625 -9.84375 0.625 -9.71875 L 0.625 -0.203125 C 0.625 -0.078125 0.6875 0 0.8125 0 L 5.359375 0 C 5.515625 0 5.5625 -0.078125 5.5625 -0.203125 L 5.5625 -1.4375 C 5.5625 -1.578125 5.515625 -1.640625 5.359375 -1.640625 L 2.265625 -1.640625 L 2.265625 -4.140625 L 4.640625 -4.140625 C 4.765625 -4.140625 4.828125 -4.21875 4.828125 -4.34375 L 4.828125 -5.578125 C 4.828125 -5.71875 4.765625 -5.78125 4.640625 -5.78125 L 2.265625 -5.78125 L 2.265625 -8.265625 L 5.359375 -8.265625 C 5.515625 -8.265625 5.5625 -8.34375 5.5625 -8.46875 Z M 5.5625 -9.71875 "/></g></g></g><g fill="#ffffff" fill-opacity="1"><g transform="translate(120.296051, 77.237638)"><g><path d="M 4.171875 -5.0625 L 6.078125 -9.609375 C 6.140625 -9.78125 6.078125 -9.90625 5.890625 -9.90625 L 4.640625 -9.90625 C 4.515625 -9.90625 4.40625 -9.859375 4.359375 -9.734375 L 3.203125 -6.796875 L 2.0625 -9.734375 C 2 -9.859375 1.90625 -9.90625 1.765625 -9.90625 L 0.53125 -9.90625 C 0.328125 -9.90625 0.265625 -9.78125 0.34375 -9.609375 L 2.234375 -5.0625 L 0.265625 -0.296875 C 0.203125 -0.125 0.265625 0 0.453125 0 L 1.734375 0 C 1.875 0 1.96875 -0.046875 2.015625 -0.171875 L 3.203125 -3.171875 L 4.40625 -0.171875 C 4.453125 -0.046875 4.546875 0 4.6875 0 L 5.953125 0 C 6.15625 0 6.21875 -0.125 6.140625 -0.296875 Z M 4.171875 -5.0625 "/></g></g></g><g fill="#ffffff" fill-opacity="1"><g transform="translate(130.189783, 77.237638)"><g><path d="M 5.59375 -8.125 C 5.59375 -9.296875 4.953125 -9.90625 3.796875 -9.90625 L 2.421875 -9.90625 C 1.25 -9.90625 0.625 -9.296875 0.625 -8.125 L 0.625 -1.78125 C 0.625 -0.625 1.25 0 2.421875 0 L 3.796875 0 C 4.953125 0 5.59375 -0.625 5.59375 -1.78125 L 5.59375 -3.125 C 5.59375 -3.25 5.515625 -3.328125 5.390625 -3.328125 L 4.15625 -3.328125 C 4.015625 -3.328125 3.953125 -3.25 3.953125 -3.125 L 3.953125 -2.125 C 3.953125 -1.796875 3.78125 -1.640625 3.453125 -1.640625 L 2.8125 -1.640625 C 2.484375 -1.640625 2.3125 -1.796875 2.3125 -2.125 L 2.3125 -7.78125 C 2.3125 -8.109375 2.484375 -8.28125 2.8125 -8.28125 L 3.453125 -8.28125 C 3.78125 -8.28125 3.953125 -8.109375 3.953125 -7.78125 L 3.953125 -6.796875 C 3.953125 -6.671875 4.015625 -6.59375 4.15625 -6.59375 L 5.390625 -6.59375 C 5.515625 -6.59375 5.59375 -6.671875 5.59375 -6.796875 Z M 5.59375 -8.125 "/></g></g></g><g fill="#ffffff" fill-opacity="1"><g transform="translate(139.624849, 77.237638)"><g><path d="M 3.890625 -5.78125 L 2.296875 -5.78125 L 2.296875 -9.71875 C 2.296875 -9.84375 2.234375 -9.90625 2.109375 -9.90625 L 0.828125 -9.90625 C 0.6875 -9.90625 0.625 -9.84375 0.625 -9.71875 L 0.625 -0.203125 C 0.625 -0.078125 0.6875 0 0.828125 0 L 2.109375 0 C 2.234375 0 2.296875 -0.078125 2.296875 -0.203125 L 2.296875 -4.140625 L 3.890625 -4.140625 L 3.890625 -0.203125 C 3.890625 -0.078125 3.96875 0 4.09375 0 L 5.359375 0 C 5.515625 0 5.578125 -0.078125 5.578125 -0.203125 L 5.578125 -9.71875 C 5.578125 -9.84375 5.515625 -9.90625 5.359375 -9.90625 L 4.09375 -9.90625 C 3.96875 -9.90625 3.890625 -9.84375 3.890625 -9.71875 Z M 3.890625 -5.78125 "/></g></g></g><g fill="#ffffff" fill-opacity="1"><g transform="translate(149.047516, 77.237638)"><g><path d="M 6.59375 0 C 6.734375 0 6.796875 -0.078125 6.765625 -0.203125 L 4.703125 -9.734375 C 4.6875 -9.859375 4.609375 -9.90625 4.5 -9.90625 L 2.78125 -9.90625 C 2.65625 -9.90625 2.59375 -9.859375 2.5625 -9.734375 L 0.515625 -0.203125 C 0.46875 -0.078125 0.53125 0 0.671875 0 L 2 0 C 2.109375 0 2.171875 -0.0625 2.1875 -0.171875 L 2.53125 -1.984375 L 4.734375 -1.984375 L 5.078125 -0.171875 C 5.109375 -0.0625 5.171875 0 5.28125 0 Z M 4.421875 -3.421875 L 2.84375 -3.421875 L 3.625 -7.75 Z M 4.421875 -3.421875 "/></g></g></g><g fill="#ffffff" fill-opacity="1"><g transform="translate(159.53628, 77.237638)"><g><path d="M 4.421875 -9.90625 C 4.28125 -9.90625 4.21875 -9.84375 4.21875 -9.71875 L 4.21875 -4.484375 L 4.15625 -4.484375 L 2.265625 -9.75 C 2.234375 -9.859375 2.15625 -9.90625 2.046875 -9.90625 L 0.8125 -9.90625 C 0.6875 -9.90625 0.625 -9.84375 0.625 -9.71875 L 0.625 -0.203125 C 0.625 -0.078125 0.6875 0 0.8125 0 L 2.109375 0 C 2.25 0 2.296875 -0.078125 2.296875 -0.203125 L 2.296875 -5.453125 L 2.359375 -5.453125 L 4.265625 -0.15625 C 4.296875 -0.046875 4.375 0 4.484375 0 L 5.71875 0 C 5.84375 0 5.90625 -0.078125 5.90625 -0.203125 L 5.90625 -9.71875 C 5.90625 -9.84375 5.84375 -9.90625 5.71875 -9.90625 Z M 4.421875 -9.90625 "/></g></g></g><g fill="#ffffff" fill-opacity="1"><g transform="translate(169.293651, 77.237638)"><g><path d="M 0.625 -1.78125 C 0.625 -0.625 1.234375 0 2.40625 0 L 4.046875 0 C 5.1875 0 5.828125 -0.625 5.828125 -1.78125 L 5.828125 -5.234375 C 5.828125 -5.359375 5.75 -5.421875 5.625 -5.421875 L 3.546875 -5.421875 C 3.40625 -5.421875 3.34375 -5.359375 3.34375 -5.234375 L 3.34375 -3.984375 C 3.34375 -3.859375 3.40625 -3.796875 3.546875 -3.796875 L 4.1875 -3.796875 L 4.1875 -2.125 C 4.1875 -1.796875 4.015625 -1.640625 3.6875 -1.640625 L 2.796875 -1.640625 C 2.484375 -1.640625 2.296875 -1.796875 2.296875 -2.125 L 2.296875 -7.78125 C 2.296875 -8.109375 2.46875 -8.28125 2.796875 -8.28125 L 3.6875 -8.28125 C 4.015625 -8.28125 4.1875 -8.109375 4.1875 -7.78125 L 4.1875 -6.84375 C 4.1875 -6.71875 4.25 -6.640625 4.390625 -6.640625 L 5.625 -6.640625 C 5.75 -6.640625 5.828125 -6.71875 5.828125 -6.84375 L 5.828125 -8.125 C 5.828125 -9.296875 5.1875 -9.90625 4.046875 -9.90625 L 2.40625 -9.90625 C 1.234375 -9.90625 0.625 -9.296875 0.625 -8.125 Z M 0.625 -1.78125 "/></g></g></g><g fill="#ffffff" fill-opacity="1"><g transform="translate(178.964251, 77.237638)"><g><path d="M 5.5625 -9.71875 C 5.5625 -9.84375 5.515625 -9.90625 5.359375 -9.90625 L 0.8125 -9.90625 C 0.6875 -9.90625 0.625 -9.84375 0.625 -9.71875 L 0.625 -0.203125 C 0.625 -0.078125 0.6875 0 0.8125 0 L 5.359375 0 C 5.515625 0 5.5625 -0.078125 5.5625 -0.203125 L 5.5625 -1.4375 C 5.5625 -1.578125 5.515625 -1.640625 5.359375 -1.640625 L 2.265625 -1.640625 L 2.265625 -4.140625 L 4.640625 -4.140625 C 4.765625 -4.140625 4.828125 -4.21875 4.828125 -4.34375 L 4.828125 -5.578125 C 4.828125 -5.71875 4.765625 -5.78125 4.640625 -5.78125 L 2.265625 -5.78125 L 2.265625 -8.265625 L 5.359375 -8.265625 C 5.515625 -8.265625 5.5625 -8.34375 5.5625 -8.46875 Z M 5.5625 -9.71875 "/></g></g></g></svg>