<svg width="64" height="89" fill="none" xmlns="http://www.w3.org/2000/svg"><g opacity=".2"><path fill-rule="evenodd" clip-rule="evenodd" d="M62.9825 61.6116C62.9825 44.4213 50.2831 32.0232 40.1343 24.3479H31.9952H23.8484C13.7073 32.0232 1.00012 44.4213 1.00012 61.6116C1.00012 78.8637 14.8281 87.7603 31.9102 87.7912C31.9256 87.7912 31.9411 87.7912 31.9488 87.7912C31.9566 87.7912 31.9797 87.7912 31.9875 87.7912C32.0029 87.7912 32.0184 87.7912 32.0261 87.7912C32.0338 87.7912 32.057 87.7912 32.0648 87.7912C49.1546 87.768 62.9825 78.8637 62.9825 61.6116Z" fill="#fff" stroke="#fff" stroke-width="1.075" stroke-linecap="round" stroke-linejoin="round"/><path d="M43.3205 58.2493C42.9263 57.3063 42.3543 56.4715 41.5968 55.7449C40.8393 55.0184 39.9041 54.4 38.791 53.8744C37.678 53.3488 36.4026 52.9314 34.9495 52.6145L33.4345 52.2667V46.1604C34.2693 46.2841 34.9495 46.5469 35.4751 46.9565C36.2249 47.544 36.6422 48.3633 36.7427 49.4068H43.5214C43.506 47.5826 43.0268 45.9826 42.107 44.5991C41.1794 43.2155 39.8809 42.1411 38.2113 41.3759C36.8278 40.7421 35.2355 40.3711 33.4422 40.2628V36.9701H31.1002V40.2706C29.3611 40.3865 27.7843 40.7498 26.3698 41.3759C24.6384 42.1411 23.278 43.2 22.2964 44.5681C21.3148 45.9285 20.8278 47.5208 20.8355 49.3295C20.8278 51.5478 21.5544 53.3101 23.0075 54.6164C24.4684 55.915 26.4626 56.858 28.9978 57.4377L31.1002 57.9324V64.3787C30.5051 64.3014 29.9563 64.1623 29.4616 63.9613C28.6732 63.6367 28.0548 63.1575 27.6065 62.5314C27.1582 61.9053 26.9031 61.1169 26.849 60.1739H20.0703C20.1012 62.4618 20.6191 64.3555 21.6317 65.8473C22.6442 67.3468 24.0587 68.4598 25.8751 69.1941C27.3978 69.8048 29.1369 70.1603 31.0925 70.2608V73.5845H33.4345V70.2608C35.3823 70.1681 37.0828 69.828 38.5282 69.2328C40.2596 68.5294 41.5891 67.5091 42.5089 66.1874C43.4364 64.8657 43.9002 63.2734 43.9079 61.4261C43.9079 60.2512 43.7147 59.1922 43.3205 58.2493ZM30.6365 51.5401C30.1031 51.3469 29.6471 51.1304 29.2684 50.8754C28.8896 50.6203 28.6036 50.3266 28.4104 49.9942C28.2171 49.6618 28.1244 49.2754 28.1476 48.8348C28.1553 48.3015 28.3176 47.83 28.6191 47.4126C28.9205 46.9952 29.3843 46.6705 29.9949 46.4309C30.3196 46.3073 30.6828 46.2145 31.0925 46.1527V51.687C30.9379 51.6483 30.7833 51.5942 30.6365 51.5401ZM36.1862 62.9797C35.8229 63.4357 35.305 63.7913 34.6326 64.0541C34.277 64.1932 33.8751 64.2937 33.4422 64.3555V58.5198C33.9137 58.6589 34.3311 58.8058 34.6944 58.9604C35.3823 59.2541 35.9002 59.5942 36.2326 59.9884C36.5649 60.3826 36.735 60.8618 36.7505 61.4106C36.735 61.998 36.5495 62.5236 36.1862 62.9797Z" fill="url(#paint0_linear_4008_4864)"/><path fill-rule="evenodd" clip-rule="evenodd" d="M31.9936 18.3497C41.1839 18.3497 44.7395 12.5526 46.0535 10.1178C47.6535 7.15747 47.6921 3.81835 45.4274 2.24154C41.3231 -0.610622 37.7057 4.15072 37.7057 4.15072C37.7057 4.15072 35.9434 0.834778 31.9859 0.834778C28.0284 0.834778 26.2661 4.15072 26.2661 4.15072C26.2661 4.15072 22.6487 -0.618352 18.5444 2.24154C16.2797 3.81835 16.3183 7.14974 17.9183 10.1178C19.2478 12.5526 22.8033 18.3497 31.9936 18.3497Z" fill="#fff" stroke="#fff" stroke-width="1.075" stroke-linecap="round" stroke-linejoin="round"/><path fill-rule="evenodd" clip-rule="evenodd" d="M24.1431 16.8043H39.8416C41.9131 16.8043 43.5827 18.4893 43.5827 20.5762C43.5827 22.6632 41.9131 24.3482 39.8416 24.3482H24.1431C22.0717 24.3482 20.4021 22.6632 20.4021 20.5762C20.4021 18.4893 22.0717 16.8043 24.1431 16.8043Z" fill="url(#paint1_linear_4008_4864)"/></g><defs><linearGradient id="paint0_linear_4008_4864" x1="20.07" y1="55.277" x2="43.908" y2="55.277" gradientUnits="userSpaceOnUse"><stop stop-color="#FF9900"/><stop offset="1" stop-color="#FF6A59"/></linearGradient><linearGradient id="paint1_linear_4008_4864" x1="20.402" y1="20.576" x2="43.583" y2="20.576" gradientUnits="userSpaceOnUse"><stop stop-color="#FF9900"/><stop offset="1" stop-color="#FF6A59"/></linearGradient></defs></svg>