<svg width="32" height="32" viewBox="0 0 32 32" fill="none" xmlns="http://www.w3.org/2000/svg">
<g clip-path="url(#clip0_11357_9896)">
<rect width="32" height="32" rx="16" fill="white"/>
<rect x="-2" y="-2" width="36" height="36" rx="18" fill="url(#paint0_linear_11357_9896)"/>
<rect x="-2" y="-2" width="36" height="36" rx="18" stroke="white" stroke-width="4"/>
<path d="M24.1203 20.2599C24.4248 19.9285 24.4002 19.4157 24.0652 19.1145C23.7302 18.8133 23.2118 18.8377 22.9073 19.1691L21.6011 20.5903L21.6011 12.2838C21.6011 11.3039 21.2441 10.3504 20.5877 9.63616C19.929 8.91937 19.0178 8.5 18.0492 8.5L16.6831 8.5C16.2304 8.5 15.8634 8.86301 15.8634 9.31081C15.8634 9.75861 16.2304 10.1216 16.6831 10.1216L18.0492 10.1216C18.5299 10.1216 19.0087 10.3287 19.3747 10.727C19.7431 11.1278 19.9618 11.6867 19.9618 12.2838L19.9618 20.59L18.6559 19.1691C18.3513 18.8377 17.8329 18.8133 17.498 19.1145C17.163 19.4157 17.1383 19.9285 17.4428 20.2599L20.1448 23.1999C20.295 23.383 20.5244 23.5 20.7815 23.5C21.0372 23.5 21.2656 23.3841 21.4159 23.2026L24.1203 20.2599ZM15.3171 23.5C15.7698 23.5 16.1368 23.137 16.1368 22.6892C16.1368 22.2414 15.7698 21.8784 15.3171 21.8784L13.951 21.8784C13.4703 21.8784 12.9915 21.6713 12.6255 21.273C12.2571 20.8721 12.0384 20.3133 12.0384 19.7162L12.0384 11.4079L13.3446 12.8292C13.6491 13.1605 14.1675 13.185 14.5025 12.8837C14.8375 12.5825 14.8621 12.0697 14.5576 11.7384L11.8254 8.7654C11.7824 8.71867 11.7345 8.67749 11.6828 8.64237C11.5543 8.5549 11.3993 8.50276 11.2322 8.50011L11.2188 8.5C10.9737 8.5 10.7537 8.6064 10.6035 8.77504L7.88014 11.7384C7.57562 12.0697 7.60031 12.5825 7.93527 12.8837C8.27024 13.185 8.78864 13.1605 9.09315 12.8292L10.3991 11.4082L10.3991 19.7162C10.3991 20.6961 10.7561 21.6496 11.4125 22.3638C12.0713 23.0806 12.9824 23.5 13.951 23.5L15.3171 23.5Z" fill="#121214"/>
</g>
<defs>
<linearGradient id="paint0_linear_11357_9896" x1="-4" y1="-0.666672" x2="39.8967" y2="4.81912" gradientUnits="userSpaceOnUse">
<stop stop-color="#FFD748"/>
<stop offset="1" stop-color="#F7A600"/>
</linearGradient>
<clipPath id="clip0_11357_9896">
<rect width="32" height="32" rx="16" fill="white"/>
</clipPath>
</defs>
</svg>
