<svg width="20" height="20" fill="none" xmlns="http://www.w3.org/2000/svg"><path transform="rotate(90 17 2)" fill="#EF454A" d="M17 2H23V8H17z"/><path transform="rotate(90 9 2)" fill="#20B26C" d="M9 2H15V8H9z"/><g opacity=".8" fill="#000"><path transform="rotate(90 17 10)" d="M17 10H25V12H17z"/><path transform="rotate(90 13 10)" d="M13 10H21V12H13z"/><path d="M9 10L9 18 7 18 7 10 9 10zM5 10L5 18 3 18 3 10 5 10z"/></g><g opacity=".4"><path transform="rotate(90 17 2)" fill="#EF454A" d="M17 2H23V8H17z"/><path transform="rotate(90 9 2)" fill="#20B26C" d="M9 2H15V8H9z"/><g opacity=".8" fill="#000"><path transform="rotate(90 17 10)" d="M17 10H25V12H17z"/><path transform="rotate(90 13 10)" d="M13 10H21V12H13z"/><path d="M9 10L9 18 7 18 7 10 9 10zM5 10L5 18 3 18 3 10 5 10z"/></g></g></svg>
